<?xml version="1.0" standalone="no"?>
<!DOCTYPE svg PUBLIC "-//W3C//DTD SVG 1.1//EN" "http://www.w3.org/Graphics/SVG/1.1/DTD/svg11.dtd" >
<svg xmlns="http://www.w3.org/2000/svg" xmlns:xlink="http://www.w3.org/1999/xlink" version="1.1">
<metadata></metadata>
<defs>
<font id="codebasketregular" horiz-adv-x="492" >
<font-face units-per-em="2048" ascent="1628" descent="-420" />
<missing-glyph horiz-adv-x="486" />
<glyph horiz-adv-x="0" />
<glyph horiz-adv-x="682" />
<glyph unicode=" "  horiz-adv-x="486" />
<glyph unicode="&#x09;" horiz-adv-x="486" />
<glyph unicode="&#xa0;" horiz-adv-x="486" />
<glyph unicode="!" />
<glyph unicode="#" />
<glyph unicode="+" horiz-adv-x="1968" />
<glyph unicode="1" horiz-adv-x="2394" d="M2150 1072v-64q0 -122 -23.5 -246t-68 -245.5t-113 -235.5t-155 -215t-198.5 -184.5t-239 -144t-280.5 -94t-319.5 -33.5q-405 0 -753 221q58 -6 117 -6q171 0 326 54.5t285 155.5q-160 3 -286 97.5t-173 242.5q39 -7 91 -7q66 0 130 18q-111 22 -201 90t-142 170.5 t-52 218.5v7q107 -58 224 -61q-101 67 -159.5 175t-58.5 234q0 134 66 247q184 -226 447 -361.5t565 -151.5q-11 55 -11 112q0 100 38.5 190.5t104 156t156.5 104.5t191 39q104 0 196.5 -41t161.5 -114q168 36 312 121q-27 -86 -83 -157t-132 -116q141 16 282 78 q-100 -148 -245 -255z" />
<glyph unicode="2" horiz-adv-x="1654" d="M1650 926l-35 -343h-273v-973h-404v973h-193v343h193v222q0 36 5 72.5t18 78t33 77.5t52 70t73.5 58t99.5 38t127 14l298 -2v-332h-216q-15 0 -28.5 -4.5t-27 -14t-22 -28.5t-8.5 -46v-203h308z" />
<glyph unicode="3" horiz-adv-x="1953" d="M982 1567q114 0 223 -26.5t205 -75.5t180.5 -117t151 -154.5t114.5 -184.5t73.5 -210.5t25.5 -228.5q0 -163 -49.5 -315.5t-137.5 -274.5t-210.5 -215t-267.5 -142q-33 -7 -49.5 8.5t-16.5 39.5q0 5 1 100t1 173q0 66 -18.5 113t-47.5 71q50 6 92.5 15.5t89.5 27 t83.5 41.5t71 62t57 86t36.5 114t14 146q0 157 -100 269q6 16 10 34.5t8 54t-2.5 81.5t-25.5 94q-23 7 -59 -0.5t-71 -24t-67 -34t-52 -30.5l-19 -13q-119 33 -243.5 33t-243.5 -33q-7 5 -20.5 13.5t-50 29t-68.5 35t-69 23t-60 1.5q-18 -48 -25 -94.5t-3 -80.5t9 -54.5 t11 -34.5q-101 -113 -101 -269q0 -79 13.5 -145.5t36.5 -114t57 -85.5t71 -62.5t83.5 -42t89 -27t93.5 -15.5q-51 -47 -63 -134q-20 -9 -42.5 -16t-56 -9.5t-64 5.5t-63.5 34t-56 70q-15 27 -36 47t-40 30t-36 16.5t-27 7.5l-10 1q-27 1 -37.5 -5t-6 -15t12.5 -18t16 -15 l9 -6q28 -14 54.5 -50.5t39.5 -66.5l12 -30q12 -39 36 -68t53.5 -43.5t62.5 -22.5t64 -8.5t56 1.5t40 4l15 3q2 -83 2 -169q0 -24 -16 -39.5t-50 -8.5q-144 49 -267 142t-211 215t-137.5 274.5t-49.5 315.5q0 136 34.5 265t97.5 238.5t153 201.5t196.5 156t232.5 100t258 36 z" />
<glyph unicode=":" />
<glyph unicode=";" />
<glyph unicode="&#x3c;" horiz-adv-x="1164" d="M796 -325l-731 752q-65 65 -65 156.5t65 157.5l731 751q63 65 152.5 65t152.5 -65q64 -65 64 -158t-64 -157l-578 -594l578 -593q64 -64 64 -156.5t-64 -158.5q-63 -64 -152.5 -64t-152.5 64z" />
<glyph unicode="&#x3e;" horiz-adv-x="1164" d="M370 -325q-63 -64 -153 -64t-152 64q-65 66 -65 158.5t65 156.5l577 593l-577 594q-65 64 -65 157t65 158q62 65 152 65t153 -65l731 -751q64 -66 64 -157.5t-64 -156.5z" />
<glyph unicode="?" />
<glyph unicode="A" horiz-adv-x="1454" d="M973 1556l482 -486h-482v486zM794 891h665v-1208q0 -30 -21.5 -51.5t-50.5 -21.5h-1313q-30 0 -52 21.5t-22 51.5v1802q0 29 22 50t52 21h720v-665zM1066 195q41 0 69.5 28t28.5 68.5t-28.5 69.5t-69.5 29h-240v250q0 41 -28 69t-68.5 28t-68.5 -28t-28 -69v-250h-247 q-40 0 -69 -29t-29 -69q0 -20 8 -38t21 -31t31 -20.5t38 -7.5h247v-236q0 -40 28 -68.5t68.5 -28.5t68.5 28.5t28 68.5v236h240z" />
<glyph unicode="B" horiz-adv-x="1940" d="M1626 770q-54 -82 -71 -141.5t0.5 -94.5t63 -54.5t116.5 -22.5t162 2q11 1 19 -2.5t12.5 -10.5t7 -15.5t2.5 -18.5q0 -18 -12.5 -63t-26.5 -85t-24 -64q-79 -178 -214.5 -311t-312 -206t-371.5 -73q-133 0 -259 35t-233 97.5t-197.5 152.5t-153.5 196.5t-98.5 233 t-35.5 258.5q0 28 5.5 83t16.5 121.5t31.5 115t45.5 48.5q39 0 39 -49q0 -2 28 -21.5t75 -46.5t108.5 -57t129.5 -49.5t135.5 -29t129 9t109 61t75.5 130.5t28 213q0 6 -4.5 19.5t-12.5 34t-22 42.5t-32 41.5t-44 33.5t-55 17q-26 2 -61 1.5t-76.5 -2.5t-83.5 -4.5t-81.5 -4 t-70 -1t-48.5 5t-18 12.5q0 19 15 32q72 67 180 117.5t220 75t215 24.5q27 0 82.5 -5.5t122.5 -16.5t115.5 -31.5t48.5 -45.5q0 -3 -17.5 -16.5t-45 -32.5t-58.5 -45t-60 -55t-47.5 -63t-22.5 -67t16.5 -69.5t67.5 -69.5q47 -32 82 -47.5t68.5 -16.5t58 20.5t46.5 66 t38.5 116.5t29.5 174q8 16 25 19t33 -7q115 -77 216 -221t136 -279q2 -4 2 -12q0 -25 -39.5 -35t-88.5 -10t-97.5 -8t-62.5 -29zM1008 -33q0 15 36 82.5t79.5 141t80 143t36.5 88.5q0 23 -28 37q-5 2 -23 16t-41 30t-52 33t-67 29t-75 14q-164 10 -312 79q-56 25 -65 9 t-8 -139q1 -62 1 -102q0 -12 59 -133t69 -133q4 -4 42 -40.5t66 -65t31 -34.5l114 -278q3 -10 13 -16t22 -6q17 0 28 10t11 27q0 35 -8.5 104t-8.5 104z" />
<glyph unicode="C" horiz-adv-x="1945" d="M0 533v102q0 36 25.5 61.5t61.5 25.5h125q29 0 51 17t32 45q33 89 57 138q10 19 10 39q0 22 -10 41.5t-25.5 34t-33.5 31t-33 30.5t-25.5 34t-10.5 41q0 37 25 62l72 72q23 26 62 26q25 0 48 -14.5t40.5 -35t36 -41.5t41.5 -35.5t49 -14.5q6 0 20 4.5t30.5 10.5t36 14.5 t36 15.5t32.5 14t23 10q27 10 43 32t16 49v127q0 36 25.5 61.5t61.5 25.5h101q36 0 62 -25.5t26 -61.5v-125q0 -19 7.5 -35.5t21.5 -29t31 -18.5q75 -28 140 -58q17 -9 39 -9q25 0 48 14.5t40.5 35t35.5 40.5t41 34.5t48 14.5q36 0 61 -26l73 -72q24 -25 24 -62 q0 -25 -14 -47.5t-34 -40.5t-40.5 -35.5t-34.5 -40.5t-14 -48q0 -23 7 -39q34 -71 59 -140q10 -27 32.5 -43.5t51.5 -16.5h124q37 0 62.5 -25.5t25.5 -61.5v-102q0 -36 -25.5 -61.5t-62.5 -25.5h-126q-18 0 -34.5 -7.5t-28.5 -20.5t-19 -30q-3 -10 -22 -53.5t-32.5 -79 t-13.5 -47.5q0 -26 14.5 -49t35 -41t41 -35.5t34.5 -40.5t14 -48q0 -38 -24 -62l-73 -72q-25 -25 -61 -25q-25 0 -48 14t-41 34.5t-35.5 40.5t-40.5 34t-48 14q-20 0 -39 -9q-45 -22 -138 -56q-18 -7 -32.5 -19t-22 -29t-7.5 -36v-124q0 -24 -12 -44.5t-32 -32.5t-44 -12 h-101q-36 0 -61.5 26t-25.5 63v124q0 29 -17 51.5t-44 32.5q-74 27 -139 58q-16 7 -39 7q-25 0 -48 -14t-41 -34t-35.5 -40.5t-40.5 -34.5t-48 -14q-36 0 -62 25l-72 72q-25 24 -25 62q0 25 14.5 48t34.5 40.5t40.5 35.5t34.5 40.5t14 47.5q0 24 -8 39q-33 71 -59 141 q-10 27 -32 43.5t-51 16.5h-125q-36 0 -61.5 25.5t-25.5 61.5zM1251 687q0 33 -25 62l-88 88q-28 25 -62 25h-207q-34 0 -61 -25l-88 -88q-26 -29 -26 -62v-206q0 -34 26 -63l88 -87q27 -25 61 -25h207q34 0 62 25l88 87q25 29 25 63v206z" />
<glyph unicode="D" horiz-adv-x="1483" d="M0 1103q0 54 38 93t90 39h882q34 0 64 -18t47 -48.5t17 -65.5v-1359q0 -55 -38 -94.5t-90 -39.5h-882q-52 0 -90 39.5t-38 94.5v1359zM397 1556h965q34 0 62 -16t44.5 -44t16.5 -61v-1448q0 -55 -38.5 -94t-92.5 -39h-41v1327q0 49 -17 91.5t-46.5 73t-71.5 48t-90 17.5 h-819v13q0 55 37 93.5t91 38.5z" />
<glyph unicode="E" horiz-adv-x="1814" d="M1716 778q41 0 70 -29.5t29 -71.5v-965q0 -27 -13.5 -50.5t-36.5 -37.5t-49 -14h-29h-29h-1528q-54 0 -92 38.5t-38 93.5v1653v31v33q0 19 8 37t21 31t31 21t37 8h843q40 0 68.5 -28.5t28.5 -68.5v-64q0 -41 -28.5 -69t-68.5 -28h-682v-1428h1298v807q0 42 30 71.5 t72 29.5h58zM1786 1315l-109 -107l-216 216l109 107q90 0 153 -63t63 -153zM1029 559l-216 215l539 541l218 -216zM598 559l106 108l217 -216l-108 -109l-325 -106z" />
<glyph unicode="F" horiz-adv-x="2250" d="M899 1350q34 -59 93.5 -92.5t126.5 -33.5h953q63 0 107.5 -45t44.5 -107v-1310q0 -62 -44.5 -107t-107.5 -45h-1920q-63 0 -107.5 45t-44.5 107v1643q0 41 20.5 76t55.5 55t76 20h500q58 0 109 -28.5t82 -79.5zM1483 278q29 0 54.5 13t42 36.5t19.5 51.5q4 50 -29 85.5 t-81 35.5h-265v2v286q0 48 -36.5 80.5t-86.5 28.5q-43 -3 -72 -37t-29 -78v-280v-2h-289q-49 0 -82.5 -35.5t-29.5 -85.5q5 -43 39 -72t78 -29h284v-2v-266q0 -50 36.5 -82.5t86.5 -28.5q43 3 72 37t29 79v261v2h259z" />
<glyph unicode="G" horiz-adv-x="1799" d="M1687 1284q54 -7 86 -50t24 -98q-5 -54 -47.5 -87t-95.5 -26l-121 16v-1297q0 -37 -14.5 -66.5t-41.5 -47.5t-62 -18h-1029q-56 0 -99.5 39t-43.5 93v1305h1240l-1370 184q-54 7 -86 50.5t-25 97.5q6 55 48.5 89t95.5 26l385 -52q5 35 26.5 63t53.5 41t66 8l513 -67 q53 -7 86 -51.5t26 -98.5zM1212 167l-173 173l173 174q28 29 28 69.5t-28 68.5q-29 29 -70 29t-68 -29l-173 -173l-175 173q-28 29 -69 29t-70 -29q-28 -28 -28 -68.5t28 -69.5l174 -174l-174 -173q-28 -29 -28 -69.5t28 -68.5q29 -29 70 -29t69 29l175 173l173 -173 q27 -29 68 -29t70 29q28 28 28 68.5t-28 69.5z" />
<glyph unicode="H" horiz-adv-x="1953" d="M1784 745q67 0 114.5 -47.5t47.5 -114.5t-47.5 -114t-114.5 -47h-650v-650q0 -67 -47 -114.5t-114 -47.5t-114.5 47.5t-47.5 114.5v650h-649q-67 0 -114.5 47t-47.5 114t47.5 114.5t114.5 47.5h649v650q0 67 47.5 114t114.5 47t114 -47t47 -114v-650h650z" />
<glyph unicode="I" horiz-adv-x="1949" d="M973 1556q132 0 258 -35t232.5 -97.5t196.5 -152.5t153 -196.5t98 -233t35 -258.5t-35 -258t-98 -232.5t-153 -196.5t-196.5 -153t-232.5 -98t-258 -35t-258.5 35t-233 98t-196.5 153t-152.5 196.5t-97.5 232.5t-35 258t35 258.5t97.5 233t152.5 196.5t196.5 152.5 t233 97.5t258.5 35zM973 1175q-72 0 -122.5 -51t-50.5 -124q0 -71 51 -122.5t122 -51.5t122 51.5t51 122.5q0 48 -23.5 88.5t-63 63.5t-86.5 23zM1185 167q-15 0 -27 5.5t-20.5 15t-13.5 22t-5 26.5v278q0 30 18.5 50.5t47 20.5t47.5 21.5t19 50.5t-20.5 51t-49.5 22h-416 q-29 0 -50.5 -22t-21.5 -51t19.5 -51.5t48.5 -22.5q19 0 34 -9t23 -25t8 -35v-278q0 -29 -18.5 -50t-46.5 -21q-29 0 -48 -20t-19 -50q0 -29 20.5 -49t50.5 -20h416q29 0 50.5 20t21.5 49q0 30 -19.5 51t-48.5 21z" />
<glyph unicode="J" horiz-adv-x="1945" d="M1910 -189q35 -35 35 -86t-35 -87q-38 -35 -87 -35q-50 0 -85 35l-493 492q-99 -71 -217 -110t-244 -39q-159 0 -304.5 62t-250.5 167t-167 250.5t-62 304.5t62 304t167 250t250.5 167t304.5 62t304 -62t250.5 -167t167.5 -250t62 -304q0 -252 -150 -462zM245 764.5 q0 -87.5 27 -169.5t77 -148.5t116.5 -116.5t148.5 -77t169.5 -27t170 27t149 77t116.5 116.5t77 148.5t27 170q0 109 -42.5 209t-115 172t-172.5 114.5t-209 42.5q-88 0 -170 -27t-148.5 -77t-116.5 -116t-77 -148.5t-27 -170z" />
<glyph unicode="K" />
<glyph unicode="L" horiz-adv-x="1554" d="M1389 1080q63 0 108.5 -45t45.5 -109t-45.5 -109t-108.5 -45h-771q-64 0 -109.5 45t-45.5 109t45.5 109t109.5 45h771zM156 772q-64 0 -109 45t-45 109t45 109t109 45t109 -45t45 -109t-45 -109t-109 -45zM1389 618q63 0 108.5 -45.5t45.5 -109.5q0 -63 -45.5 -108 t-108.5 -45h-771q-42 0 -77.5 20.5t-56.5 56t-21 76.5q0 64 45.5 109.5t109.5 45.5h771zM156 310q-64 0 -109 45t-45 108q0 64 45 109.5t109 45.5t109 -45.5t45 -109.5q0 -63 -45 -108t-109 -45zM1389 156q63 0 108.5 -45.5t45.5 -108.5q0 -25 -8 -48.5t-22.5 -42.5 t-33.5 -33.5t-42 -22t-48 -7.5h-771q-64 0 -109.5 45t-45.5 109q0 63 45.5 108.5t109.5 45.5h771zM156 -152q-64 0 -109 45t-45 109q0 63 45 108.5t109 45.5t109 -45.5t45 -108.5q0 -64 -45 -109t-109 -45z" />
<glyph unicode="M" horiz-adv-x="1554" d="M1389 1080q63 0 108.5 -45t45.5 -109t-45.5 -109t-108.5 -45h-1235q-64 0 -109 45t-45 109t45 109t109 45h1235zM1389 618q63 0 108.5 -45.5t45.5 -109.5q0 -63 -45.5 -108t-108.5 -45h-1235q-64 0 -109 45t-45 108q0 42 20.5 77.5t56 56.5t77.5 21h1235zM1389 156 q63 0 108.5 -45.5t45.5 -108.5q0 -25 -8 -48.5t-22.5 -42.5t-33.5 -33.5t-42 -22t-48 -7.5h-1235q-64 0 -109 45t-45 109q0 63 45 108.5t109 45.5h1235z" />
<glyph unicode="N" horiz-adv-x="1554" d="M219 522q-90 0 -154.5 63.5t-64.5 153.5q0 91 64.5 156t155 65t154.5 -65t64 -156q0 -59 -29.5 -109t-79.5 -79t-110 -29zM783.5 522q-90.5 0 -155 63.5t-64.5 153.5q0 59 29.5 110t80 81t110 30t110 -30t79.5 -81t29 -110q0 -90 -64 -153.5t-154.5 -63.5zM1329 522 q-59 0 -110 29t-80.5 79t-29.5 109q0 91 65 156t155 65t154 -65t64 -156q0 -90 -63.5 -153.5t-154.5 -63.5z" />
<glyph unicode="O" horiz-adv-x="1297" d="M1144 804q60 0 103 -44.5t43 -105.5v-895q0 -61 -43 -105t-103 -44h-998q-60 0 -103 44t-43 105v895q0 61 43 105.5t103 44.5h803v264q0 89 -39 163t-110.5 117.5t-159.5 42.5q-130 -2 -215 -72.5t-85 -193.5v-18q0 -23 -11.5 -43t-31.5 -31.5t-42 -11.5 q-35 0 -59.5 25.5t-24.5 60.5v10q0 99 36.5 182t100 139t150 87t186.5 31q98 0 186 -38.5t151.5 -104t100.5 -156t37 -189.5v-264h25zM778 165q70 51 70 152q0 81 -56 138t-136.5 57t-136.5 -57t-56 -138q0 -99 72 -152v-117q0 -50 35.5 -85t86.5 -35q50 0 85.5 35.5 t35.5 84.5v117z" />
<glyph unicode="P" horiz-adv-x="1297" d="M1144 804q60 0 103 -44.5t43 -105.5v-895q0 -61 -43 -105t-103 -44h-998q-60 0 -103 44t-43 105v895q0 61 43 105.5t103 44.5h25v264q0 100 37 190t100 155.5t151.5 104t186.5 38.5h-6q99 0 187.5 -38.5t152.5 -104t101.5 -155.5t37.5 -190v-264h25zM778 165 q70 51 70 152q0 81 -56 138t-136.5 57t-136.5 -57t-56 -138q0 -99 72 -152v-117q0 -50 35.5 -86t86.5 -36q33 0 61 16.5t44 45t16 60.5v117zM949 804v264q0 89 -38.5 162.5t-109 117t-157.5 43.5q-131 0 -217.5 -94t-86.5 -229v-264h609z" />
<glyph unicode="Q" />
<glyph unicode="R" horiz-adv-x="2435" d="M2389 745q16 -19 21.5 -42t0 -44t-17.5 -38.5t-33 -28.5t-45 -11l-165 -1q-1 -128 -35 -254.5t-99.5 -240.5t-155 -208.5t-207 -163t-248.5 -99.5q-76 -18 -137.5 31.5t-61.5 128.5v5q0 58 36.5 101.5t94.5 56.5q103 25 187 89t137.5 151.5t82.5 190.5t29 212l-166 1 q-30 0 -54 17t-35 41t-7.5 53t22.5 53l353 413q29 34 74.5 34t74.5 -34zM24 420q-20 23 -23 52.5t8 53.5t35.5 40.5t54.5 16.5h161q1 127 35 254t100 241.5t155 209.5t206 164t248 100q78 18 140 -31.5t62 -129.5q0 -58 -37.5 -103.5t-94.5 -58.5q-87 -19 -159 -65 t-122.5 -109t-85.5 -141t-52 -161t-17 -170h164q30 0 54 -16.5t35.5 -40.5t8 -53.5t-23.5 -52.5l-351 -409q-29 -35 -75 -35t-75 35z" />
<glyph unicode="S" horiz-adv-x="1801" d="M1292 1556q51 0 86 -34l384 -376q37 -37 37 -88v-1327q0 -50 -35 -85.5t-85 -35.5h-1533v147h-146v1678q0 50 35.5 85.5t87.5 35.5h169v-535q0 -30 21.5 -51t52.5 -21h607q31 0 52.5 21t21.5 51v535h245zM1387 -74q50 0 85.5 35.5t35.5 86.5v487q0 51 -35.5 86.5 t-85.5 35.5h-973q-51 0 -86.5 -35.5t-35.5 -86.5v-487q0 -51 35.5 -86.5t86.5 -35.5h973zM901 1556v-437h-292v437h292z" />
<glyph unicode="T" horiz-adv-x="2089" d="M438 919v-156h407q28 0 53.5 -13t42 -36t19.5 -51q4 -50 -28.5 -85.5t-81.5 -35.5h-412v-154q0 -38 -26 -62t-60.5 -22t-57.5 30l-275 273q-19 19 -19 45.5t19 45.5l275 273q17 21 42.5 26.5t47.5 -2.5t38 -28.5t16 -47.5zM1494 872q-70 0 -133.5 27t-109.5 73t-73 109 t-27 133q0 93 46 172t124.5 124.5t172.5 45.5q70 0 133.5 -27t109 -73t72.5 -109t27 -133t-27 -133t-72.5 -109t-109 -73t-133.5 -27zM1528 761q114 -4 217 -52.5t176.5 -128t116.5 -186.5t43 -223v-403q0 -65 -45 -111.5t-109 -46.5h-839q-42 0 -78 21.5t-57 57.5t-21 79 v419q0 119 47.5 227t127.5 185.5t190 121.5t231 40z" />
<glyph unicode="U" horiz-adv-x="2092" d="M555 761q120 4 230.5 -39.5t190.5 -121t127.5 -185.5t47.5 -228v-421q0 -64 -45 -110t-109 -46h-841q-64 0 -110 46t-46 110v407q0 92 27.5 179.5t78.5 159.5t118.5 127.5t153 87t177.5 34.5zM590 872q-93 0 -172 46t-125 124.5t-46 171.5t46 172t125 124.5t172 45.5 q70 0 133 -27t109 -73t73 -109t27 -133q0 -93 -46 -171.5t-124.5 -124.5t-171.5 -46zM1644 919q0 36 26 59.5t61 22t59 -29.5l274 -273q20 -19 20 -45.5t-20 -45.5l-274 -273q-24 -28 -59 -30t-61 22t-26 62v154h-411q-48 0 -80 35.5t-28 85.5q4 42 37.5 71t75.5 29h406v156 z" />
<glyph unicode="V" horiz-adv-x="2122" d="M555 761q120 4 230.5 -39.5t190.5 -121t127.5 -185.5t47.5 -228v-421q0 -64 -45 -110t-109 -46h-841q-64 0 -110 46t-46 110v407q0 92 27.5 179.5t78.5 159.5t118.5 127.5t153 87t177.5 34.5zM590 872q-93 0 -172 46t-125 124.5t-46 171.5t46 172t125 124.5t172 45.5 q70 0 133 -27t109 -73t73 -109t27 -133q0 -93 -46 -171.5t-124.5 -124.5t-171.5 -46zM2000 763q29 0 55 -15.5t41 -41t15 -54.5q0 -45 -33 -77.5t-78 -32.5h-274v-273q0 -45 -32 -77t-77 -32t-77 32t-32 77v273h-275q-45 0 -77.5 32.5t-32.5 77.5t32.5 78t77.5 33h275v273 q0 23 8.5 43.5t23.5 35t35 23t42 8.5q30 0 55 -14.5t39.5 -40t14.5 -55.5v-273h274z" />
<glyph unicode="W" horiz-adv-x="2034" d="M555 761q120 4 230.5 -39.5t190.5 -121t127.5 -185.5t47.5 -228v-421q0 -64 -45 -110t-109 -46h-841q-64 0 -110 46t-46 110v407q0 92 27.5 179.5t78.5 159.5t118.5 127.5t153 87t177.5 34.5zM590 872q-93 0 -172 46t-125 124.5t-46 171.5t46 172t125 124.5t172 45.5 q70 0 133 -27t109 -73t73 -109t27 -133q0 -93 -46 -171.5t-124.5 -124.5t-171.5 -46zM1773 652l192 -193q32 -32 32 -78t-32 -78t-76.5 -32t-76.5 32l-195 195l-195 -195q-32 -32 -77 -32t-77 32t-32 78t32 78l193 193l-193 194q-32 33 -32 77.5t32 76.5t77 32t77 -32 l195 -192l195 192q32 32 76.5 32t76.5 -32t32 -76.5t-32 -77.5z" />
<glyph unicode="X" horiz-adv-x="2200" d="M1076 761q121 4 231 -39.5t189.5 -121t127 -185.5t47.5 -228v-421q0 -64 -46 -110t-110 -46h-840q-63 0 -108 46t-45 110v407q0 115 43 221.5t116 186t176.5 128t218.5 52.5zM1109 872q-93 0 -172 46t-124.5 124.5t-45.5 171.5q0 70 27 133t72.5 109t109 73t133.5 27 q94 0 172.5 -45.5t124.5 -124.5t46 -172t-46 -171.5t-124.5 -124.5t-172.5 -46zM410.5 763q-101.5 0 -173.5 71.5t-72 173.5t72 174.5t173.5 72.5t174 -72.5t72.5 -174.5t-72.5 -173.5t-174 -71.5zM1780 763q-102 0 -173.5 71.5t-71.5 173.5t72 174.5t173.5 72.5t174 -72.5 t72.5 -174.5q0 -67 -33 -123.5t-90 -89t-124 -32.5zM383 173v-288h-272q-45 0 -78 32.5t-33 78.5v290q0 83 31 159t83.5 132.5t126.5 91t156 37.5q97 3 183 -36q-93 -100 -145 -228.5t-52 -268.5zM1767 706q86 3 165 -28t136 -86.5t91 -133t34 -163.5v-299q0 -23 -9 -43.5 t-24.5 -35.5t-35.5 -23.5t-43 -8.5h-271v302q0 137 -49.5 261t-143.5 224q66 31 150 34z" />
<glyph unicode="a" horiz-adv-x="2231" d="M656 1554q45 0 81.5 -14.5t59.5 -38t45 -53.5t38.5 -61t39 -61t48 -53.5t65.5 -38t90 -14.5h953q62 0 107 -44.5t45 -107.5v-1307q0 -63 -45 -107.5t-107 -44.5h-1920q-63 0 -107.5 44.5t-44.5 107.5v1642q0 63 44.5 107t107.5 44h500z" />
<glyph unicode="b" horiz-adv-x="2651" d="M2627 638l-405 -926q-22 -50 -68 -79.5t-101 -29.5h-1834q-74 0 -128 54t-54 129q0 33 15 72l405 926q22 50 67.5 80.5t99.5 30.5h1834q75 0 129.5 -53.5t54.5 -129.5q0 -36 -15 -74zM2235 1053l-2 -30h-1609q-96 0 -159 -36t-99 -120l-360 -811v1325q0 69 49.5 118 t117.5 49h494q89 0 152 -56q6 -6 12.5 -13t12 -13t11.5 -14.5t10 -14.5t10.5 -15.5t9.5 -15t9.5 -16t9.5 -14.5q23 -38 39.5 -60t43 -46.5t61.5 -36t81 -11.5h937q72 0 121.5 -49t47.5 -120z" />
<glyph unicode="c" horiz-adv-x="1065" />
<glyph unicode="d" horiz-adv-x="2219" d="M1500 884q0 -86 -36 -163.5t-99.5 -132t-142.5 -78.5v-792q0 -47 -33 -80t-78 -33q-24 0 -44.5 9t-35 24t-23 36t-8.5 44v792q-80 24 -143 79t-99 132t-36 163q0 65 21 125.5t57.5 109t88 84.5t111.5 54v180q0 31 14.5 57t40 41t56.5 15q45 0 78 -33t33 -80v-180 q121 -37 199.5 -140t78.5 -233zM2222 273q0 -131 -78 -234t-200 -140v-181q0 -23 -9 -44t-23.5 -36t-35 -24t-43.5 -9q-46 0 -79 33t-33 80v181q-80 24 -143 78.5t-98.5 131.5t-35.5 164q0 130 77.5 233t199.5 138v793q0 31 15.5 57t41 41t55.5 15q46 0 78.5 -32.5 t32.5 -80.5v-793q122 -35 200 -138t78 -233zM498 644q122 -35 200 -138t78 -233q0 -131 -78 -234t-200 -140v-181q0 -47 -32 -80t-78 -33t-79 33t-33 80v181q-121 37 -199.5 140t-78.5 234q0 129 78.5 232.5t199.5 138.5v793q0 31 15.5 57t41 41t55.5 15t55.5 -15t40 -41 t14.5 -57v-793z" />
<glyph unicode="e" horiz-adv-x="1949" d="M542 689q-23 23 -33 51t-6 54t17.5 47.5t39.5 34.5t58 13h215v502q0 69 55.5 117t127.5 40q61 -5 105.5 -53.5t44.5 -109.5v-496h215q54 0 86.5 -33.5t30.5 -81.5t-41 -85l-391 -388q-28 -28 -66 -28.5t-66 26.5zM1695 105q103 0 176 -74t73 -177q0 -104 -73 -176.5 t-176 -72.5h-1446q-104 0 -177.5 73t-73.5 176t74 177t177 74h1446zM1695 -284q57 0 97.5 40.5t40.5 97.5q0 58 -40.5 99t-97.5 41q-59 0 -100 -41t-41 -99q0 -57 41 -97.5t100 -40.5z" />
<glyph unicode="f" horiz-adv-x="1454" d="M973 1550l482 -486h-482v486zM733 826h726v-1147q0 -31 -21.5 -52.5t-52.5 -21.5h-1313q-20 0 -36.5 10t-26 27t-9.5 37v1799q0 30 21 51t51 21h661v-724z" />
<glyph unicode="g" horiz-adv-x="1702" d="M1700 815q0 -63 -25 -119t-69 -96.5t-100 -60.5v-112q0 -82 -57 -138.5t-138 -56.5h-389v-535q0 -41 -28.5 -69.5t-68.5 -28.5q-20 0 -37.5 8t-31 21t-21 31t-7.5 38v292h-340q-81 0 -138 56.5t-57 137.5v210q-86 31 -140.5 106.5t-54.5 170.5q0 120 85.5 205.5 t206.5 85.5q59 0 113 -23t93 -62.5t62 -93t23 -112.5q0 -95 -53.5 -170.5t-139.5 -106.5v-210h340v794q-87 31 -141 106t-54 170q0 120 85.5 206t206 86t206.5 -86t86 -206q0 -63 -25 -119t-69 -96.5t-101 -60.5v-550h389v112q-42 15 -78 42t-61.5 63t-40 80t-14.5 91 q0 120 85.5 206t206.5 86t206 -86t85 -206z" />
<glyph unicode="h" horiz-adv-x="1814" d="M258 -258v1295h1298v-1295q0 -36 -17.5 -66t-47.5 -48t-65 -18h-1036q-55 0 -93.5 38.5t-38.5 93.5zM522 646l258 -258l-258 -260l128 -130l260 258l259 -258l131 130l-261 260l261 258l-131 130l-259 -258l-260 258zM1687 1424q53 0 90.5 -38t37.5 -92 q0 -53 -37.5 -90.5t-90.5 -37.5h-1557q-54 0 -92 37.5t-38 90.5q0 54 38 92t92 38h382v2q0 35 17.5 65t47.5 47.5t65 17.5h526q35 0 65 -17.5t47.5 -47.5t17.5 -65q-2 0 -2 -2h391z" />
<glyph unicode="i" horiz-adv-x="1945" d="M1247 -390h-679q-115 0 -220.5 45.5t-181.5 121.5t-121 181t-45 221v679q0 116 45 221.5t121 181t181.5 120.5t220.5 45h210q54 0 93 -38t39 -92t-39 -93t-93 -39h-210q-126 0 -216 -90t-90 -216v-679q0 -126 90.5 -215.5t215.5 -89.5h679q127 0 216 89.5t89 215.5v211 q0 54 39.5 93t93.5 39t92 -39t38 -93v-211q0 -116 -44.5 -221t-120.5 -181t-181.5 -121.5t-221.5 -45.5zM1814 776q-55 0 -93 38t-38 92v201l-688 -687q-36 -39 -93 -39q-27 0 -51.5 10.5t-42 28t-28 42.5t-10.5 52q0 55 39 91l687 689h-200q-54 0 -92 38t-38 92 q0 55 38 93.5t92 38.5h518q55 0 93.5 -38t38.5 -94v-518q0 -54 -38.5 -92t-93.5 -38z" />
<glyph unicode="j" horiz-adv-x="2480" d="M2442 958q37 -24 37 -69t-37 -68l-985 -587q-40 -25 -80 -2.5t-40 69.5v258q-13 -1 -36 -2.5t-95.5 -11.5t-145.5 -26t-176 -51t-197 -80.5t-199 -119.5t-192 -164t-166 -217.5t-130 -276.5q-6 247 36 458t118 359.5t176 270.5t212 197.5t225 132t215 83.5t181.5 43 t126.5 19l47 2v301q0 47 40 69.5t80 -0.5z" />
<glyph unicode="k" horiz-adv-x="791" />
<glyph unicode="l" horiz-adv-x="1976" d="M663 -379l-646 648q-26 25 -16.5 59.5t46.5 42.5l863 221q35 7 60 -18t16 -58l-217 -867q-9 -34 -44.5 -43.5t-61.5 15.5zM1313 1531l646 -647q25 -25 15.5 -60.5t-44.5 -43.5l-866 -218q-33 -8 -58 16.5t-16 57.5l218 866q9 35 44 44.5t61 -15.5z" />
<glyph unicode="m" horiz-adv-x="1497" d="M323 557l637 -637q24 -26 14.5 -60.5t-44.5 -42.5l-850 -214q-34 -9 -58.5 16t-15.5 58l213 850q9 35 43.5 45t60.5 -15zM1175 105l-634 636q-26 25 -16.5 59t43.5 43l850 215q34 9 58.5 -15.5t15.5 -58.5l-213 -850q-9 -35 -43.5 -44.5t-60.5 15.5z" />
<glyph unicode="n" horiz-adv-x="1704" d="M101 1062h1501q38 0 66 -24.5t33 -59t-12 -70.5l-751 -1255q-15 -24 -38.5 -37t-48 -13t-48.5 13t-38 37l-750 1255q-18 36 -13 70.5t33 59t66 24.5z" />
<glyph unicode="o" horiz-adv-x="1710" d="M1604 -397h-1499q-29 0 -53 14.5t-36 37.5t-13.5 50.5t14.5 53.5l750 1255q30 50 87.5 50t86.5 -50l750 -1255q16 -26 14.5 -53.5t-13 -50.5t-35.5 -37.5t-53 -14.5z" />
<glyph unicode="p" horiz-adv-x="1252" d="M1251 971v-1285q0 -50 -45 -75.5t-89 -0.5l-1074 645q-44 25 -44 74t44 74l1074 644q44 25 89 0t45 -76z" />
<glyph unicode="q" horiz-adv-x="1258" d="M4 975q0 51 44 75.5t88 -1.5l1076 -642q42 -25 42 -74.5t-42 -76.5l-1076 -642q-44 -26 -88 -0.5t-44 76.5v1285z" />
<glyph unicode="r" />
<glyph unicode="s" horiz-adv-x="1945" d="M1434 1097q12 12 30 12t30 -12q12 -13 12 -30t-12 -30q-12 -11 -30 -11t-30 11q-12 13 -12 30t12 30zM382.5 183.5q40.5 40.5 98.5 40.5t98.5 -40.5t40.5 -98.5t-40.5 -98.5t-98.5 -40.5t-98.5 40.5t-40.5 98.5t40.5 98.5zM1524 144q25 -25 25 -59t-25 -59t-59.5 -25 t-59.5 25t-25 59t25 59t59.5 25t59.5 -25zM618 1205q57 -57 57 -137.5t-57 -137.5t-137 -57t-137 57t-57 137.5t57 137.5t137 57t137 -57zM1667 633q24 0 40.5 -17t16.5 -40.5t-16.5 -39.5t-40.5 -16q-23 0 -38.5 16t-15.5 40t15.5 40.5t38.5 16.5zM278.5 743 q68.5 0 118 -49.5t49.5 -118t-49.5 -118t-118 -49.5t-118 49.5t-49.5 118t49.5 118t118 49.5zM1084 -119q0 -47 -32 -79t-79 -32t-79 32t-32 79q0 46 32 78.5t78.5 32.5t79 -32.5t32.5 -78.5zM1194 1270q0 -92 -64.5 -156.5t-156.5 -64.5q-45 0 -86 17.5t-71 47t-47.5 70.5 t-17.5 86q0 92 65 157t157 65q60 0 111 -29.5t80.5 -81t29.5 -111.5z" />
<glyph unicode="t" />
<glyph unicode="u" />
<glyph unicode="v" />
<glyph unicode="w" horiz-adv-x="2235" d="M72 638l138 140q71 71 173 71t174 -71l310 -313l800 1000q45 55 111.5 78t135 8t119.5 -66l130 -131q67 -69 71 -164.5t-58 -168.5l-1135 -1324q-69 -82 -176.5 -86t-183.5 72l-609 609q-71 71 -71 173t71 173z" />
<glyph unicode="x" horiz-adv-x="1464" d="M1023 329l372 -370q61 -63 61 -149.5t-61.5 -147.5t-148 -61t-147.5 61l-371 371l-372 -371q-61 -61 -148 -61t-150 61q-61 61 -61 147.5t61 149.5l372 370l-372 371q-61 61 -61 149t61 149q63 62 150 62t148 -62l372 -372l371 372q61 62 147.5 62t148 -61.5t61.5 -149.5 t-61 -149z" />
<glyph unicode="y" horiz-adv-x="1945" d="M1368 583l496 -494q82 -83 82 -199t-82 -198t-198 -82t-199 82l-494 497l-494 -497q-84 -82 -199.5 -82t-197.5 82t-82 198t82 199l496 494l-496 495q-82 84 -82 199t82 197t197.5 82t199.5 -82l494 -496l494 496q83 82 199 82t198 -82t82 -197t-82 -199z" />
<glyph unicode="&#xae;" horiz-adv-x="793" />
<glyph unicode="&#x2000;" horiz-adv-x="783" />
<glyph unicode="&#x2001;" horiz-adv-x="1567" />
<glyph unicode="&#x2002;" horiz-adv-x="783" />
<glyph unicode="&#x2003;" horiz-adv-x="1567" />
<glyph unicode="&#x2004;" horiz-adv-x="522" />
<glyph unicode="&#x2005;" horiz-adv-x="391" />
<glyph unicode="&#x2006;" horiz-adv-x="261" />
<glyph unicode="&#x2007;" horiz-adv-x="261" />
<glyph unicode="&#x2008;" horiz-adv-x="195" />
<glyph unicode="&#x2009;" horiz-adv-x="313" />
<glyph unicode="&#x200a;" horiz-adv-x="87" />
<glyph unicode="&#x202f;" horiz-adv-x="313" />
<glyph unicode="&#x205f;" horiz-adv-x="391" />
<glyph unicode="&#x25fc;" horiz-adv-x="1060" d="M0 1060h1060v-1060h-1060v1060z" />
</font>
</defs>
</svg>
